<svg width="30" height="30" viewBox="0 0 30 30" fill="none" xmlns="http://www.w3.org/2000/svg">
<g clip-path="url(#clip0_33_15)">
<path d="M21.875 1.14624C20.4674 1.16813 19.0906 1.56106 17.8835 2.28533C16.6763 3.0096 15.6817 4.03958 15 5.27124C14.3183 4.03958 13.3237 3.0096 12.1166 2.28533C10.9094 1.56106 9.53257 1.16813 8.12501 1.14624C5.88119 1.24373 3.76714 2.22531 2.24474 3.87653C0.722333 5.52775 -0.0846793 7.7144 8.89879e-06 9.95874C8.89832e-06 18.4275 13.695 28.2087 14.2775 28.6237L15 29.135L15.7225 28.6237C16.305 28.2112 30 18.4275 30 9.95874C30.0847 7.7144 29.2777 5.52775 27.7553 3.87653C26.2329 2.22531 24.1188 1.24373 21.875 1.14624ZM15 26.0575C10.9338 23.02 2.50001 15.5575 2.50001 9.95874C2.41456 8.37714 2.95797 6.8259 4.01171 5.64336C5.06546 4.46083 6.54405 3.74293 8.12501 3.64624C9.70597 3.74293 11.1846 4.46083 12.2383 5.64336C13.2921 6.8259 13.8355 8.37714 13.75 9.95874H16.25C16.1646 8.37714 16.708 6.8259 17.7617 5.64336C18.8155 4.46083 20.2941 3.74293 21.875 3.64624C23.456 3.74293 24.9346 4.46083 25.9883 5.64336C27.042 6.8259 27.5855 8.37714 27.5 9.95874C27.5 15.56 19.0663 23.02 15 26.0575Z" fill="white"/>
</g>
<defs>
<clipPath id="clip0_33_15">
<rect width="30" height="30" fill="white"/>
</clipPath>
</defs>
</svg>
