<svg width="30" height="30" viewBox="0 0 30 30" fill="none" xmlns="http://www.w3.org/2000/svg">
<g clip-path="url(#clip0_33_24)">
<path d="M26.25 30H23.75V23.6963C23.749 22.7162 23.3593 21.7767 22.6663 21.0837C21.9733 20.3907 21.0338 20.001 20.0537 20H9.94625C8.96625 20.001 8.02667 20.3907 7.3337 21.0837C6.64074 21.7767 6.25099 22.7162 6.25 23.6963V30H3.75V23.6963C3.75198 22.0535 4.40544 20.4786 5.56703 19.317C6.72862 18.1554 8.30351 17.502 9.94625 17.5H20.0537C21.6965 17.502 23.2714 18.1554 24.433 19.317C25.5946 20.4786 26.248 22.0535 26.25 23.6963V30Z" fill="white"/>
<path d="M15 14.9999C13.5166 14.9999 12.0666 14.5601 10.8332 13.736C9.59986 12.9119 8.63856 11.7405 8.07091 10.3701C7.50325 8.99962 7.35472 7.49162 7.64411 6.03677C7.9335 4.58191 8.64781 3.24554 9.6967 2.19664C10.7456 1.14775 12.082 0.433442 13.5368 0.144053C14.9917 -0.145336 16.4997 0.00318861 17.8701 0.570846C19.2406 1.1385 20.4119 2.0998 21.236 3.33317C22.0601 4.56653 22.5 6.01658 22.5 7.49994C22.498 9.48846 21.7072 11.395 20.3011 12.8011C18.895 14.2071 16.9885 14.998 15 14.9999ZM15 2.49994C14.0111 2.49994 13.0444 2.79319 12.2222 3.34259C11.3999 3.892 10.759 4.67289 10.3806 5.58653C10.0022 6.50016 9.90315 7.50549 10.0961 8.47539C10.289 9.4453 10.7652 10.3362 11.4645 11.0355C12.1637 11.7347 13.0546 12.2109 14.0246 12.4039C14.9945 12.5968 15.9998 12.4978 16.9134 12.1193C17.8271 11.7409 18.6079 11.1 19.1574 10.2778C19.7068 9.45555 20 8.48885 20 7.49994C20 6.17386 19.4732 4.90209 18.5355 3.96441C17.5979 3.02673 16.3261 2.49994 15 2.49994Z" fill="white"/>
</g>
<defs>
<clipPath id="clip0_33_24">
<rect width="30" height="30" fill="white"/>
</clipPath>
</defs>
</svg>
