<svg width="13" height="17" viewBox="0 0 13 17" fill="none" xmlns="http://www.w3.org/2000/svg">
<path d="M0 17V5.66667H2.4375V4.04762C2.4375 2.92778 2.83373 1.97308 3.62619 1.18352C4.4181 0.394508 5.37604 0 6.5 0C7.62396 0 8.58217 0.394508 9.37463 1.18352C10.1665 1.97308 10.5625 2.92778 10.5625 4.04762V5.66667H13V17H0ZM4.0625 5.66667H8.9375V4.04762C8.9375 3.37302 8.70052 2.7996 8.22656 2.32738C7.7526 1.85516 7.17708 1.61905 6.5 1.61905C5.82292 1.61905 5.2474 1.85516 4.77344 2.32738C4.29948 2.7996 4.0625 3.37302 4.0625 4.04762V5.66667ZM6.5 12.9524C6.94688 12.9524 7.32956 12.794 7.64806 12.4772C7.96602 12.1599 8.125 11.7786 8.125 11.3333C8.125 10.8881 7.96602 10.5068 7.64806 10.1895C7.32956 9.87268 6.94688 9.71429 6.5 9.71429C6.05312 9.71429 5.67071 9.87268 5.35275 10.1895C5.03425 10.5068 4.875 10.8881 4.875 11.3333C4.875 11.7786 5.03425 12.1599 5.35275 12.4772C5.67071 12.794 6.05312 12.9524 6.5 12.9524Z" fill="black" fill-opacity="0.25"/>
</svg>
