<svg width="12" height="9" viewBox="0 0 12 9" fill="none" xmlns="http://www.w3.org/2000/svg">
<path d="M11.7612 1.58824L6.46751 7.82769C6.40449 7.90175 6.33611 7.95417 6.26239 7.98496C6.18867 8.01623 6.10961 8.03202 6.02523 8.03232C5.94085 8.03263 5.86168 8.01741 5.78774 7.98666C5.71379 7.95641 5.64504 7.90448 5.58149 7.83088L0.227207 1.62973C0.0789178 1.45799 0.00430865 1.24291 0.00337911 0.984499C0.00244958 0.726087 0.0807613 0.504308 0.238314 0.319159C0.395867 0.13401 0.580122 0.041057 0.791078 0.0402982C1.00203 0.0395394 1.18695 0.131165 1.34583 0.315175L6.01693 5.72508L10.649 0.281711C10.796 0.108905 10.9776 0.0221137 11.1936 0.0213366C11.41 0.020558 11.5977 0.112174 11.7566 0.296184C11.9155 0.480195 11.9953 0.695253 11.9962 0.941359C11.9971 1.18746 11.9188 1.40309 11.7612 1.58824Z" fill="#83997F"/>
</svg>
